<?xml version="1.0" encoding="UTF-8" standalone="no"?>
<!-- Created with Inkscape (http://www.inkscape.org/) -->

<svg
   width="210mm"
   height="297mm"
   viewBox="0 0 210 297"
   version="1.1"
   id="svg603"
   inkscape:version="1.2.2 (732a01da63, 2022-12-09)"
   sodipodi:docname="previous.svg"
   xmlns:inkscape="http://www.inkscape.org/namespaces/inkscape"
   xmlns:sodipodi="http://sodipodi.sourceforge.net/DTD/sodipodi-0.dtd"
   xmlns="http://www.w3.org/2000/svg"
   xmlns:svg="http://www.w3.org/2000/svg">
  <sodipodi:namedview
     id="namedview605"
     pagecolor="#ffffff"
     bordercolor="#000000"
     borderopacity="0.25"
     inkscape:showpageshadow="2"
     inkscape:pageopacity="0.0"
     inkscape:pagecheckerboard="0"
     inkscape:deskcolor="#d1d1d1"
     inkscape:document-units="mm"
     showgrid="true"
     inkscape:zoom="0.914906"
     inkscape:cx="396.76207"
     inkscape:cy="561.80635"
     inkscape:window-width="2560"
     inkscape:window-height="1369"
     inkscape:window-x="-8"
     inkscape:window-y="-8"
     inkscape:window-maximized="1"
     inkscape:current-layer="layer1">
    <inkscape:grid
       type="xygrid"
       id="grid607" />
  </sodipodi:namedview>
  <defs
     id="defs600" />
  <g
     inkscape:label="Layer 1"
     inkscape:groupmode="layer"
     id="layer1">
    <path
       sodipodi:type="star"
       style="fill:#ffffff;stroke-width:0.264583"
       id="path1408"
       inkscape:flatsided="false"
       sodipodi:sides="3"
       sodipodi:cx="20.821812"
       sodipodi:cy="77.792595"
       sodipodi:r1="137.74307"
       sodipodi:r2="73.772881"
       sodipodi:arg1="2.0964528"
       sodipodi:arg2="3.1436503"
       inkscape:rounded="0.05"
       inkscape:randomized="0"
       d="m -48.295039,196.93963 c -5.163571,-2.99538 -4.668157,-113.329364 -4.655874,-119.298833 0.01228,-5.969471 -0.02906,-116.304569 5.146795,-119.278666 5.175854,-2.974098 100.480182,52.621937 105.643753,55.61731 5.163571,2.995372 100.737245,58.127117 100.724955,64.096587 -0.0123,5.96947 -95.812023,60.707422 -100.987877,63.681522 -5.175855,2.97409 -100.708181,58.17745 -105.871752,55.18208 z"
       inkscape:transform-center-x="12.566532"
       inkscape:transform-center-y="-0.064617979"
       transform="matrix(-0.39299837,0,0,0.45990776,63.163041,104.11553)" />
    <path
       sodipodi:type="star"
       style="fill:#ffffff;stroke-width:0.264583"
       id="path1416"
       inkscape:flatsided="false"
       sodipodi:sides="3"
       sodipodi:cx="20.821812"
       sodipodi:cy="77.792595"
       sodipodi:r1="137.74307"
       sodipodi:r2="73.772881"
       sodipodi:arg1="2.0964528"
       sodipodi:arg2="3.1436503"
       inkscape:rounded="0.05"
       inkscape:randomized="0"
       d="m -48.295039,196.93963 c -5.163571,-2.99538 -4.668157,-113.329364 -4.655874,-119.298833 0.01228,-5.969471 -0.02906,-116.304569 5.146795,-119.278666 5.175854,-2.974098 100.480182,52.621937 105.643753,55.61731 5.163571,2.995372 100.737245,58.127117 100.724955,64.096587 -0.0123,5.96947 -95.812023,60.707422 -100.987877,63.681522 -5.175855,2.97409 -100.708181,58.17745 -105.871752,55.18208 z"
       inkscape:transform-center-x="12.566528"
       inkscape:transform-center-y="-0.064617979"
       transform="matrix(-0.39299837,0,0,0.45990776,146.1611,102.95876)" />
  </g>
</svg>
